# xmcd
#
# Track frame offsets:
#	150
#	17560
#	39510
#	39898
#	55383
#	77938
#	93733
#	110285
#	124283
#	145265
#	172228
#	194230
#	209658
#
# Disc length: 3095 seconds
#
# Revision: 4
# Processed by: cddbd v1.5.2PL0 Copyright (c) Steve Scherf et al.
# Submitted via: audiograbber 1.83.01
#
DISCID=c40c150d
DTITLE=Bluespumpm - Living Loving Riding
DYEAR=1993
DGENRE=Bluesrock
TTITLE0=Two Turning Wheels
TTITLE1=Cocksucker Blues
TTITLE2=Okay
TTITLE3=Parchman Farm
TTITLE4=Ring Of Fire
TTITLE5=Run, Run, Run
TTITLE6=Bar Blues
TTITLE7=Let's Dance Boogie
TTITLE8=Men From Milwaukee
TTITLE9=In The Morning
TTITLE10=Sitting Here Lonely
TTITLE11=Looking Back
TTITLE12=The Two Of The Butterfly-Clan
EXTD=
EXTT0=
EXTT1=
EXTT2=
EXTT3=
EXTT4=
EXTT5=
EXTT6=
EXTT7=
EXTT8=
EXTT9=
EXTT10=
EXTT11=
EXTT12=
PLAYORDER=
